<svg xmlns="http://www.w3.org/2000/svg" viewBox="0 0 480 480"><defs><style>.cls-1{fill:#fff;}.cls-2{fill:none;}</style></defs><g id="Layer_2" data-name="Layer 2"><g id="Capa_1" data-name="Capa 1"><rect class="cls-1" x="307.9" y="286.4" width="8.5" height="8.5"/><path class="cls-1" d="M279.4,125.75l-14.2,7.1-14.2-7.1-14.2,7.1-14.2-7.1L201.3,136.4v89.22H165.8a21.33,21.33,0,0,0-21.3,21.3V357.45l21.3,10.65L180,361l14.2,7.1,14.2-7.1,14.2,7.1,14.2-7.1,14.2,7.1,21.3-10.65V325h35.5a21.32,21.32,0,0,0,21.3-21.3V136.4l-21.3-10.65-14.2,7.1Zm-78.1,178a7.1,7.1,0,1,1-14.2,0v-56.8a21.18,21.18,0,0,0-1.22-7.1H201.3Zm56.8,44.95-7.1,3.55-14.2-7.1-14.2,7.1-14.2-7.1-14.2,7.1-14.2-7.1-14.2,7.1-7.1-3.55V246.92a7.1,7.1,0,1,1,14.2,0v56.8A21.32,21.32,0,0,0,194.2,325h63.9Zm56.8-203.49V303.72a7.11,7.11,0,0,1-7.1,7.1H214.28a21.14,21.14,0,0,0,1.22-7.1V145.18l7.1-3.55,14.2,7.1,14.2-7.1,14.2,7.1,14.2-7.1,14.2,7.1,14.2-7.1Z"/><path class="cls-1" d="M258.1,168.82h42.6V183H258.1Z"/><path class="cls-1" d="M229.7,197.22h71v14.2h-71Z"/><path class="cls-1" d="M229.7,225.62h71v14.2h-71Z"/><path class="cls-1" d="M229.7,254h71v14.2h-71Z"/><path class="cls-1" d="M229.7,282.42h71v14.2h-71Z"/><path class="cls-1" d="M229.7,168.82h14.2V183H229.7Z"/><rect class="cls-2" width="480" height="480"/></g></g></svg>