<svg xmlns="http://www.w3.org/2000/svg" viewBox="0 0 480 480"><defs><style>.cls-1{fill:#fff;}.cls-2{fill:none;}</style></defs><g id="Layer_2" data-name="Layer 2"><g id="Capa_1" data-name="Capa 1"><rect class="cls-1" x="235.75" y="235.75" width="8.5" height="8.5"/><rect class="cls-2" width="480" height="480"/><path class="cls-1" d="M368.31,240h-8.55V197.24a8.55,8.55,0,0,0-8.55-8.56h-8.56V163a8.56,8.56,0,0,0-8.55-8.56H305.17L290.42,125a8.55,8.55,0,0,0-11.48-3.83L259.23,131l-3-6a8.55,8.55,0,0,0-11.48-3.82L178.1,154.46H128.79a25.7,25.7,0,0,0-25.66,25.67v154a25.7,25.7,0,0,0,25.66,25.67H351.21a8.56,8.56,0,0,0,8.55-8.56V308.44h8.55a8.55,8.55,0,0,0,8.56-8.55V248.56A8.55,8.55,0,0,0,368.31,240Zm-42.77-68.44v17.11h-3.26l-8.56-17.11Zm-46.6-31.29,24.21,48.4H288.06L266.88,146.3Zm-34.22,0,24.21,48.4h-121ZM128.79,171.57h15.09l-23,11.48a8.64,8.64,0,0,1-.68-2.92A8.55,8.55,0,0,1,128.79,171.57ZM342.65,342.66H128.79a8.55,8.55,0,0,1-8.55-8.56v-130a25.37,25.37,0,0,0,8.55,1.64H342.65V240H308.43a34.22,34.22,0,0,0,0,68.43h34.22Zm17.11-51.33H308.43a17.11,17.11,0,0,1,0-34.21h51.33Z"/></g></g></svg>