<svg xmlns="http://www.w3.org/2000/svg" viewBox="0 0 480 480"><defs><style>.cls-1{fill:#fff;}.cls-2{fill:none;}</style></defs><g id="Layer_2" data-name="Layer 2"><g id="Capa_1" data-name="Capa 1"><rect class="cls-1" x="235.75" y="235.75" width="8.5" height="8.5"/><rect class="cls-2" width="480" height="480"/><path class="cls-1" d="M328.16,156.09A118.66,118.66,0,1,0,362.92,240a117.85,117.85,0,0,0-34.76-83.91Zm12,41.63H319.73a25,25,0,0,0-23.43-18c-6.39-16.6-15.24-30.51-26.17-41.29a105.24,105.24,0,0,1,70,59.28ZM349,240a105.3,105.3,0,0,1-3.87,28.38H304.8a180,180,0,0,0,1.8-41.24,25.05,25.05,0,0,0,13.13-15.52h25.41A105.3,105.3,0,0,1,349,240ZM162,268.38H143.36a106,106,0,0,1,0-56.76h40.36a179.19,179.19,0,0,0-2.16,34.9A31.2,31.2,0,0,0,162,268.38Zm133.8-52.67a11,11,0,1,1,11.05-11A11.06,11.06,0,0,1,295.77,215.71Zm-23.95-18H251.2V140.59c16.12,11.6,25.83,28.36,31.59,42.79a25,25,0,0,0-11,14.34Zm-34.52-57.1v57.1H200.92a135.12,135.12,0,0,1,5.57-16.26c7.36-17.59,17.9-31.5,30.81-40.84Zm0,71v56.76h-15a31.13,31.13,0,0,0-26.91-23.54,165.58,165.58,0,0,1,2.39-33.22Zm-45.15,46.95A17.16,17.16,0,1,1,175,275.73,17.17,17.17,0,0,1,192.15,258.57Zm30.36,23.71H237.3v57.19c-12.29-8.71-22.06-21.14-29.2-37.1A31.21,31.21,0,0,0,222.51,282.28Zm28.69,57.11V282.28h36.39A137.87,137.87,0,0,1,283.05,296c-7.4,18.84-18.29,33.64-31.85,43.43Zm0-71V211.62h20.62a25,25,0,0,0,21,17.82,165.43,165.43,0,0,1-2.12,38.94Zm-81-102.46a104.14,104.14,0,0,1,48.27-27.5c-10.12,10-18.51,22.69-24.77,37.67a150.53,150.53,0,0,0-7.12,21.63H148.34A104.59,104.59,0,0,1,170.17,165.92ZM148.34,282.28h13.45a31.11,31.11,0,0,0,30.36,24.51c.89,0,1.78-.05,2.65-.12q9,20.81,23.28,34.81a105.22,105.22,0,0,1-69.74-59.2Zm170,31.8a104.2,104.2,0,0,1-48.25,27.49C280.83,331,289.62,317.29,296,301a150.3,150.3,0,0,0,6-18.76h38.2a104.59,104.59,0,0,1-21.83,31.8Z"/></g></g></svg>