<svg xmlns="http://www.w3.org/2000/svg" viewBox="0 0 480 480"><defs><style>.cls-1{fill:#fff;}.cls-2{fill:none;}</style></defs><g id="Layer_2" data-name="Layer 2"><g id="Capa_1" data-name="Capa 1"><rect class="cls-1" x="235.75" y="235.75" width="8.5" height="8.5"/><rect class="cls-2" width="480" height="480"/><path class="cls-1" d="M373.19,213.36H357.28l19.05-19.06a4.44,4.44,0,0,0,.09-6.19l-79.89-84.35a4.48,4.48,0,0,0-3.17-1.39,4.65,4.65,0,0,0-3.21,1.32L181.44,213.36H106.81a4.44,4.44,0,0,0-4.44,4.44,16.65,16.65,0,0,0,8.81,14.47,8.88,8.88,0,0,1-2,16.29,9,9,0,0,0-6.81,8.62v1.16a9,9,0,0,0,6.8,8.61,8.89,8.89,0,0,1,0,17.13,9,9,0,0,0-6.81,8.62v1.16a9,9,0,0,0,6.8,8.61,8.88,8.88,0,0,1,2,16.3,16.64,16.64,0,0,0-8.8,14.46,4.44,4.44,0,0,0,4.44,4.44h51.06a8.85,8.85,0,0,0,1.63,10l.82.81a9,9,0,0,0,10.9,1.28,8.89,8.89,0,0,1,12.94,10.11,16.66,16.66,0,0,0,4,16.46,4.44,4.44,0,0,0,6.28,0l38.65-38.66h140.1a4.44,4.44,0,0,0,4.44-4.44V217.8a4.44,4.44,0,0,0-4.44-4.44Zm-80-100.17L367,191.08l-22.25,22.28H281.79l45.7-45.69-6.28-6.28-52,52H253.11A4.43,4.43,0,0,0,252,211.3L245.74,205l-6.28,6.28,2.06,2.06H229l-5.2-5.2,6.28-6.28,3.14,3.14,6.28-6.28-6.28-6.27a4.43,4.43,0,0,0-6.28,0L214.34,205a4.44,4.44,0,0,0,0,6.28l2.07,2.06H193.94ZM115.55,326.49a17.75,17.75,0,0,0-4.3-32.64l.28-1.21a17.75,17.75,0,0,0-.28-34.3l.28-1.22a17.76,17.76,0,0,0,4-32.58,9.12,9.12,0,0,1-2.71-2.3H180.7a9.27,9.27,0,0,1-2.71,2.3,17.75,17.75,0,0,0,4.29,32.64l-.28,1.21a17.76,17.76,0,0,0,.28,34.31l-.28,1.21a17.76,17.76,0,0,0-4,32.58,9.14,9.14,0,0,1,2.71,2.3H112.84a9.27,9.27,0,0,1,2.71-2.3Zm76.87,39.3a9.38,9.38,0,0,1,.29-3.54,17.75,17.75,0,0,0-26.12-20.05l-.66-1.05a17.46,17.46,0,0,0,1.49-3.47h53.12Zm176.33-37H190.52a17.1,17.1,0,0,0-8.16-10,8.89,8.89,0,0,1,2-16.3,9,9,0,0,0,6.8-8.62V292.7a9,9,0,0,0-6.8-8.61,8.9,8.9,0,0,1,0-17.14,9,9,0,0,0,6.8-8.61v-1.16a9,9,0,0,0-6.8-8.61,8.89,8.89,0,0,1-2-16.3,17.12,17.12,0,0,0,8.16-10H368.75Z"/><path class="cls-1" d="M133.45,235.56h26.64v8.88H133.45Z"/><path class="cls-1" d="M133.45,253.32h26.64v8.88H133.45Z"/><path class="cls-1" d="M133.45,271.08h26.64V280H133.45Z"/><path class="cls-1" d="M133.45,288.84h26.64v8.87H133.45Z"/><path class="cls-1" d="M133.45,306.59h26.64v8.88H133.45Z"/><path class="cls-1" d="M208.92,266.64h8.88V240h8.88v-8.88H200V240h8.88Z"/><path class="cls-1" d="M342.11,266.64H351V240h8.88v-8.88H333.23V240h8.88Z"/><path class="cls-1" d="M231.12,231.12H240v35.52h-8.88Z"/><path class="cls-1" d="M248.88,266.64h17.76a4.44,4.44,0,0,0,4.44-4.44v-8.88H262.2v4.44h-8.88V240h8.88v4.44h8.88v-8.88a4.44,4.44,0,0,0-4.44-4.44H248.88a4.44,4.44,0,0,0-4.44,4.44V262.2A4.44,4.44,0,0,0,248.88,266.64Z"/><path class="cls-1" d="M284.4,251.62l3.56-1.78,5.31,5.32v11.48h8.88V253.32a4.4,4.4,0,0,0-1.3-3.14l-4.52-4.52L299.7,244a4.44,4.44,0,0,0,2.45-4v-8.88h-8.88v6.14l-8.87,4.44V231.12h-8.88v35.52h8.88Z"/><path class="cls-1" d="M311,266.64h17.76v-8.88H315.47v-4.44h13.32v-8.88H315.47V240h13.32v-8.88H311a4.44,4.44,0,0,0-4.44,4.44V262.2A4.44,4.44,0,0,0,311,266.64Z"/><path class="cls-1" d="M286.55,145.37l18.84,18.84,6.27-6.28L292.83,139.1l6.27-6.28-6.27-6.28L274,145.38l6.28,6.28Z"/><path class="cls-1" d="M264.57,205,254,194.41l1.26-3.78h7.52l8.12,8.11,6.28-6.27-9.42-9.42a4.44,4.44,0,0,0-3.14-1.3h-6.4l1.19-3.58a4.46,4.46,0,0,0-1.07-4.54L252,167.35l-6.28,6.28,4.34,4.34-3.14,9.42-7.47-7.48-6.28,6.28L258.3,211.3Z"/><path class="cls-1" d="M277.13,186.18a4.44,4.44,0,0,0,6.28,0L296,173.63l-6.28-6.28-9.42,9.42-3.14-3.14,9.42-9.42-6.28-6.28-9.42,9.42-3.14-3.14,9.42-9.42-6.28-6.28L258.3,161.07a4.42,4.42,0,0,0,0,6.28Z"/><path class="cls-1" d="M200,275.52H359.87v8.88H200Z"/><path class="cls-1" d="M297.71,293.28h62.16v8.87H297.71Z"/><path class="cls-1" d="M307.86,201.36l26.63-26.64,6.28,6.28-26.63,26.63Z"/><path class="cls-1" d="M204.48,319.91h71a4.44,4.44,0,0,0,4.44-4.44V297.71a4.43,4.43,0,0,0-4.44-4.43h-71a4.43,4.43,0,0,0-4.44,4.43v17.76A4.44,4.44,0,0,0,204.48,319.91Zm4.44-17.76h62.16V311H208.92Z"/></g></g></svg>